# Converted from tris.md3 by md32obj.py

usemtl mapobjects/barrel/skin
v -14.3438 -19.9062 -3.5625
v -13.0625 -17.9688 -11
v -18.3594 -5.45312 -4.57812
v -14.3438 -19.9062 -3.5625
v 22.9688 -8.875 5.71875
v -13.0625 -17.9688 -11
v 24.25 -6.9375 -1.70312
v 22.9688 -8.875 5.71875
v 22.4531 -7.01562 5.59375
v 23.5625 -5.32812 -0.828125
v 24.25 -6.9375 -1.70312
v 22.4531 -7.01562 5.59375
v -13.0469 -17.4062 -3.25
v 23.5625 -5.32812 -0.828125
v -11.9531 -15.7188 -9.65625
v -13.2031 -12.6719 -16.7188
v 24.1094 -1.65625 -7.40625
v -13.2031 -12.6719 -16.7188
v 24.1094 -1.65625 -7.40625
v 23.4219 -0.71875 -5.78125
v -12.0625 -11.1562 -14.5781
v 23.4219 -0.71875 -5.78125
v -14.7188 -5.45312 -19.1719
v -14.7188 -5.45312 -19.1719
v 22.5781 5.5625 -9.85938
v 22.0938 5.5625 -7.92188
v 22.5781 5.5625 -9.85938
v 22.0938 5.5625 -7.92188
v -13.3906 -4.90625 -16.7031
v -17.2188 1.76562 -17.7188
v 20.0781 12.7969 -8.40625
v -17.2188 1.76562 -17.7188
v 20.0781 12.7969 -8.40625
v 19.9219 11.875 -6.65625
v -15.5469 1.32812 -15.4531
v 19.9219 11.875 -6.65625
v -20.0312 7.0625 -12.7344
v -20.0312 7.0625 -12.7344
v 17.2812 18.0938 -3.4375
v 17.4844 16.4844 -2.34375
v 17.2812 18.0938 -3.4375
v 17.4844 16.4844 -2.34375
v -17.9688 5.90625 -11.1562
v -22.3906 9 -5.57812
v 14.9219 20.0312 3.71875
v -22.3906 9 -5.57812
v 14.9219 20.0312 3.71875
v 15.4375 18.1719 3.84375
v -20 7.57812 -4.98438
v 15.4375 18.1719 3.84375
v -23.6719 7.0625 1.84375
v -23.6719 7.0625 1.84375
v 13.6406 18.0938 11.1562
v 14.3281 16.4844 10.2812
v 13.6406 18.0938 11.1562
v 14.3281 16.4844 10.2812
v -21.1094 5.90625 1.42188
v -23.5312 1.76562 7.5625
v 13.7812 12.7969 16.8594
v -23.5312 1.76562 7.5625
v 13.7812 12.7969 16.8594
v 14.4531 11.875 15.2344
v -20.9844 1.32812 6.34375
v 14.4531 11.875 15.2344
v -22 -5.45312 10.0156
v -22 -5.45312 10.0156
v 15.2969 5.5625 19.3125
v 15.7812 5.5625 17.375
v 15.2969 5.5625 19.3125
v 15.7812 5.5625 17.375
v -19.6719 -4.90625 8.46875
v -19.5 -12.6719 8.5625
v 17.7969 -1.65625 17.8594
v -19.5 -12.6719 8.5625
v 17.7969 -1.65625 17.8594
v 17.9688 -0.71875 16.1094
v -17.5156 -11.1562 7.21875
v 17.9688 -0.71875 16.1094
v -16.7031 -17.9688 3.57812
v -16.7031 -17.9688 3.57812
v 20.6094 -6.9375 12.8906
v 20.4062 -5.32812 11.7969
v 20.6094 -6.9375 12.8906
v 20.4062 -5.32812 11.7969
v -15.0938 -15.7188 2.92188
v 22.9688 -8.875 5.71875
v -14.3438 -19.9062 -3.5625
v 22.9688 -8.875 5.71875
v 22.4531 -7.01562 5.59375
v -13.0469 -17.4062 -3.25
v 22.4531 -7.01562 5.59375
v -13.0469 -17.4062 -3.25
v -15.0938 -15.7188 2.92188
v -16.5 -4.89062 -4.10938
v -17.5156 -11.1562 7.21875
v -19.6719 -4.90625 8.46875
v -20.9844 1.32812 6.34375
v -21.1094 5.90625 1.42188
v -20 7.57812 -4.98438
v -17.9688 5.90625 -11.1562
v -15.5469 1.32812 -15.4531
v -13.3906 -4.90625 -16.7031
v -12.0625 -11.1562 -14.5781
v -11.9531 -15.7188 -9.65625
vt 0.518056 -0.843618
vt 0.486842 -0.898919
vt 0.285071 -0.843618
vt 0.00359473 -0.994653
vt 0.00359473 -0.204287
vt 0.0862518 -0.994653
vt 0.0862518 -0.204287
vt 0.00325631 -0.175947
vt 0.00325631 -0.123641
vt 0.0860758 -0.123641
vt 0.0860758 -0.175947
vt 0 -0.208333
vt -0.00390625 -0.988281
vt 0.0833333 -0.208333
vt 0.0794271 -0.988281
vt 0.401563 -0.939402
vt 0.168909 -0.204287
vt 0.168909 -0.994653
vt 0.168895 -0.175947
vt 0.168895 -0.123641
vt 0.16276 -0.988281
vt 0.166667 -0.208333
vt 0.285071 -0.95422
vt 0.251566 -0.994653
vt 0.251566 -0.204287
vt 0.251715 -0.123641
vt 0.251715 -0.175947
vt 0.25 -0.208333
vt 0.246094 -0.988281
vt 0.168579 -0.939402
vt 0.334223 -0.204287
vt 0.334223 -0.994653
vt 0.334535 -0.175947
vt 0.334535 -0.123641
vt 0.329427 -0.988281
vt 0.333333 -0.208333
vt 0.0833002 -0.898919
vt 0.41688 -0.994653
vt 0.41688 -0.204287
vt 0.417354 -0.123641
vt 0.417354 -0.175947
vt 0.416667 -0.208333
vt 0.41276 -0.988281
vt 0.0520861 -0.843618
vt 0.499537 -0.204287
vt 0.499537 -0.994653
vt 0.500174 -0.175947
vt 0.500174 -0.123641
vt 0.496094 -0.988281
vt 0.5 -0.208333
vt 0.0833002 -0.788317
vt 0.582194 -0.994653
vt 0.582194 -0.204287
vt 0.582993 -0.123641
vt 0.582993 -0.175947
vt 0.583333 -0.208333
vt 0.579427 -0.988281
vt 0.168579 -0.747834
vt 0.664851 -0.204287
vt 0.664851 -0.994653
vt 0.665813 -0.175947
vt 0.665813 -0.123641
vt 0.66276 -0.988281
vt 0.666667 -0.208333
vt 0.285071 -0.733016
vt 0.747509 -0.994653
vt 0.747509 -0.204287
vt 0.748632 -0.123641
vt 0.748632 -0.175947
vt 0.75 -0.208333
vt 0.746094 -0.988281
vt 0.401563 -0.747834
vt 0.830166 -0.204287
vt 0.830166 -0.994653
vt 0.831452 -0.175947
vt 0.831452 -0.123641
vt 0.829427 -0.988281
vt 0.833333 -0.208333
vt 0.486842 -0.788317
vt 0.912823 -0.994653
vt 0.912823 -0.204287
vt 0.914272 -0.123641
vt 0.914272 -0.175947
vt 0.916667 -0.208333
vt 0.91276 -0.988281
vt 0.99548 -0.204287
vt 0.99548 -0.994653
vt 0.997091 -0.175947
vt 0.997091 -0.123641
vt 0.996094 -0.988281
vt 1 -0.208333
vt 0.518056 -0.843618
vt 0.486842 -0.898919
vt 0.285071 -0.843618
vt 0.401563 -0.939402
vt 0.285071 -0.95422
vt 0.168579 -0.939402
vt 0.0833002 -0.898919
vt 0.0520861 -0.843618
vt 0.0833002 -0.788317
vt 0.168579 -0.747834
vt 0.285071 -0.733016
vt 0.401563 -0.747834
vt 0.486842 -0.788317
vn -0.928864 -0.266713 -0.257051
vn -0.928864 -0.266713 -0.257051
vn -0.928864 -0.266713 -0.257051
vn 0.283231 -0.956940 0.063602
vn 0.871521 -0.449611 0.195707
vn 0.376102 -0.817585 -0.436007
vn 0.925976 -0.359895 -0.114208
vn 0.871521 -0.449611 0.195707
vn 0.480922 0.870087 0.107995
vn 0.424227 0.788346 0.445580
vn 0.925976 -0.359895 -0.114208
vn 0.480922 0.870087 0.107995
vn -0.257051 0.963776 -0.071136
vn 0.424227 0.788346 0.445580
vn -0.329147 0.844854 0.421763
vn -0.928864 -0.266713 -0.257051
vn 0.916932 -0.122411 -0.379805
vn 0.357391 -0.471397 -0.806261
vn 0.916932 -0.122411 -0.379805
vn 0.451995 0.534998 0.713778
vn -0.313140 0.492898 0.811785
vn 0.451995 0.534998 0.713778
vn -0.928864 -0.266713 -0.257051
vn 0.266632 0.024541 -0.963486
vn 0.836888 0.219101 -0.501611
vn 0.521998 0.219101 0.824325
vn 0.836888 0.219101 -0.501611
vn 0.521998 0.219101 0.824325
vn -0.219035 0.024541 0.975408
vn -0.928864 -0.266713 -0.257051
vn 0.713175 0.555570 -0.427461
vn 0.085283 0.492898 -0.865897
vn 0.713175 0.555570 -0.427461
vn 0.629622 -0.122411 0.767197
vn -0.064878 -0.471397 0.879532
vn 0.629622 -0.122411 0.767197
vn -0.928864 -0.266713 -0.257051
vn -0.091464 0.844854 -0.527121
vn 0.584180 0.788346 -0.192987
vn 0.762801 -0.359895 0.537225
vn 0.584180 0.788346 -0.192987
vn 0.762801 -0.359895 0.537225
vn 0.126160 -0.817585 0.561817
vn -0.928864 -0.266713 -0.257051
vn 0.480922 0.870087 0.107995
vn -0.257051 0.963776 -0.071136
vn 0.480922 0.870087 0.107995
vn 0.871521 -0.449611 0.195707
vn 0.283231 -0.956940 0.063602
vn 0.871521 -0.449611 0.195707
vn -0.928864 -0.266713 -0.257051
vn -0.329147 0.844854 0.421763
vn 0.424227 0.788346 0.445580
vn 0.925976 -0.359895 -0.114208
vn 0.424227 0.788346 0.445580
vn 0.925976 -0.359895 -0.114208
vn 0.376102 -0.817585 -0.436007
vn -0.928864 -0.266713 -0.257051
vn 0.444834 0.555570 0.702470
vn -0.332968 0.492898 0.803856
vn 0.444834 0.555570 0.702470
vn 0.916932 -0.122411 -0.379805
vn 0.357391 -0.471397 -0.806261
vn 0.916932 -0.122411 -0.379805
vn -0.928864 -0.266713 -0.257051
vn -0.219035 0.024541 0.975408
vn 0.521998 0.219101 0.824325
vn 0.836888 0.219101 -0.501611
vn 0.521998 0.219101 0.824325
vn 0.836888 0.219101 -0.501611
vn 0.266632 0.024541 -0.963486
vn -0.928864 -0.266713 -0.257051
vn 0.629622 -0.122411 0.767197
vn -0.064878 -0.471397 0.879532
vn 0.629622 -0.122411 0.767197
vn 0.724655 0.534998 -0.434342
vn 0.085283 0.492898 -0.865897
vn 0.724655 0.534998 -0.434342
vn -0.928864 -0.266713 -0.257051
vn 0.126160 -0.817585 0.561817
vn 0.762801 -0.359895 0.537225
vn 0.584180 0.788346 -0.192987
vn 0.762801 -0.359895 0.537225
vn 0.584180 0.788346 -0.192987
vn -0.091464 0.844854 -0.527121
vn 0.871521 -0.449611 0.195707
vn 0.283231 -0.956940 0.063602
vn 0.871521 -0.449611 0.195707
vn 0.480922 0.870087 0.107995
vn -0.257051 0.963776 -0.071136
vn 0.480922 0.870087 0.107995
vn 0.933689 0.290285 0.209667
vn 0.933689 0.290285 0.209667
vn 0.933689 0.290285 0.209667
vn 0.933689 0.290285 0.209667
vn 0.928262 0.290285 0.232518
vn 0.933689 0.290285 0.209667
vn 0.933689 0.290285 0.209667
vn 0.933689 0.290285 0.209667
vn 0.933689 0.290285 0.209667
vn 0.933689 0.290285 0.209667
vn 0.933689 0.290285 0.209667
vn 0.933689 0.290285 0.209667
vn 0.933689 0.290285 0.209667
f 1/1/1 3/3/3 2/2/2
f 4/4/4 6/6/6 5/5/5
f 5/5/5 6/6/6 7/7/7
f 8/8/8 10/10/10 9/9/9
f 8/8/8 11/11/11 10/10/10
f 12/12/12 14/14/14 13/13/13
f 13/13/13 14/14/14 15/15/15
f 2/2/2 3/3/3 16/16/16
f 6/6/6 17/17/17 7/7/7
f 6/6/6 18/18/18 17/17/17
f 11/11/11 19/19/19 10/10/10
f 10/10/10 19/19/19 20/20/20
f 14/14/14 21/21/21 15/15/15
f 14/14/14 22/22/22 21/21/21
f 16/16/16 3/3/3 23/23/23
f 18/18/18 24/24/24 17/17/17
f 17/17/17 24/24/24 25/25/25
f 19/19/19 26/26/26 20/20/20
f 19/19/19 27/27/27 26/26/26
f 22/22/22 28/28/28 21/21/21
f 21/21/21 28/28/28 29/29/29
f 23/23/23 3/3/3 30/30/30
f 24/24/24 31/31/31 25/25/25
f 24/24/24 32/32/32 31/31/31
f 27/27/27 33/33/33 26/26/26
f 26/26/26 33/33/33 34/34/34
f 28/28/28 35/35/35 29/29/29
f 28/28/28 36/36/36 35/35/35
f 30/30/30 3/3/3 37/37/37
f 32/32/32 38/38/38 31/31/31
f 31/31/31 38/38/38 39/39/39
f 33/33/33 40/40/40 34/34/34
f 33/33/33 41/41/41 40/40/40
f 36/36/36 42/42/42 35/35/35
f 35/35/35 42/42/42 43/43/43
f 37/37/37 3/3/3 44/44/44
f 38/38/38 45/45/45 39/39/39
f 38/38/38 46/46/46 45/45/45
f 41/41/41 47/47/47 40/40/40
f 40/40/40 47/47/47 48/48/48
f 42/42/42 49/49/49 43/43/43
f 42/42/42 50/50/50 49/49/49
f 44/44/44 3/3/3 51/51/51
f 46/46/46 52/52/52 45/45/45
f 45/45/45 52/52/52 53/53/53
f 47/47/47 54/54/54 48/48/48
f 47/47/47 55/55/55 54/54/54
f 50/50/50 56/56/56 49/49/49
f 49/49/49 56/56/56 57/57/57
f 51/51/51 3/3/3 58/58/58
f 52/52/52 59/59/59 53/53/53
f 52/52/52 60/60/60 59/59/59
f 55/55/55 61/61/61 54/54/54
f 54/54/54 61/61/61 62/62/62
f 56/56/56 63/63/63 57/57/57
f 56/56/56 64/64/64 63/63/63
f 58/58/58 3/3/3 65/65/65
f 60/60/60 66/66/66 59/59/59
f 59/59/59 66/66/66 67/67/67
f 61/61/61 68/68/68 62/62/62
f 61/61/61 69/69/69 68/68/68
f 64/64/64 70/70/70 63/63/63
f 63/63/63 70/70/70 71/71/71
f 65/65/65 3/3/3 72/72/72
f 66/66/66 73/73/73 67/67/67
f 66/66/66 74/74/74 73/73/73
f 69/69/69 75/75/75 68/68/68
f 68/68/68 75/75/75 76/76/76
f 70/70/70 77/77/77 71/71/71
f 70/70/70 78/78/78 77/77/77
f 72/72/72 3/3/3 79/79/79
f 74/74/74 80/80/80 73/73/73
f 73/73/73 80/80/80 81/81/81
f 75/75/75 82/82/82 76/76/76
f 75/75/75 83/83/83 82/82/82
f 78/78/78 84/84/84 77/77/77
f 77/77/77 84/84/84 85/85/85
f 79/79/79 3/3/3 1/1/1
f 80/80/80 86/86/86 81/81/81
f 80/80/80 87/87/87 86/86/86
f 83/83/83 88/88/88 82/82/82
f 82/82/82 88/88/88 89/89/89
f 84/84/84 90/90/90 85/85/85
f 84/84/84 91/91/91 90/90/90
f 92/92/92 94/94/94 93/93/93
f 93/93/93 94/94/94 95/95/95
f 95/95/95 94/94/94 96/96/96
f 96/96/96 94/94/94 97/97/97
f 97/97/97 94/94/94 98/98/98
f 98/98/98 94/94/94 99/99/99
f 99/99/99 94/94/94 100/100/100
f 100/100/100 94/94/94 101/101/101
f 101/101/101 94/94/94 102/102/102
f 102/102/102 94/94/94 103/103/103
f 103/103/103 94/94/94 104/104/104
f 104/104/104 94/94/94 92/92/92
