# Converted from tris.md3 by md32obj.py

usemtl ammo/bolts/skin
v -7.64062 10.8281 6.375
v -9.5625 10.8281 4.45312
v -7.64062 12.75 4.45312
v 7.64062 10.8281 6.375
v 7.64062 12.75 4.45312
v 9.5625 10.8281 4.45312
v 7.64062 1.90625 6.375
v 9.5625 1.90625 4.45312
v 7.64062 0 4.45312
v -7.64062 1.90625 6.375
v -7.64062 0 4.45312
v -9.5625 1.90625 4.45312
v -7.64062 10.8281 -6.375
v -7.64062 12.75 -4.45312
v -9.5625 10.8281 -4.45312
v -7.64062 1.90625 -6.375
v -9.5625 1.90625 -4.45312
v -7.64062 0 -4.45312
v 7.64062 1.90625 -6.375
v 7.64062 0 -4.45312
v 9.5625 1.90625 -4.45312
v 7.64062 10.8281 -6.375
v 9.5625 10.8281 -4.45312
v 7.64062 12.75 -4.45312
v -6.375 9.5625 4.45312
v 6.375 9.5625 4.45312
v -6.375 3.1875 4.45312
v 6.375 3.1875 4.45312
v -7.64062 10.8281 6.375
v -7.64062 1.90625 6.375
v 7.64062 1.90625 6.375
v 7.64062 10.8281 6.375
v -6.375 9.5625 -4.45312
v -6.375 3.1875 -4.45312
v 6.375 3.1875 -4.45312
v 6.375 9.5625 -4.45312
v -7.64062 10.8281 -6.375
v 7.64062 10.8281 -6.375
v 7.64062 1.90625 -6.375
v -7.64062 1.90625 -6.375
v -6.375 10.8281 3.1875
v -6.375 10.8281 -3.1875
v 6.375 10.8281 -3.17188
v 6.375 10.8281 3.1875
v -7.64062 12.75 4.45312
v 7.64062 12.75 4.45312
v 7.64062 12.75 -4.45312
v -7.64062 12.75 -4.45312
v 6.375 1.90625 3.1875
v 6.375 1.90625 -3.1875
v -6.375 1.90625 -3.1875
v -6.375 1.90625 3.17188
v 7.64062 0 4.45312
v -7.64062 0 4.45312
v -7.64062 0 -4.45312
v 7.64062 0 -4.45312
v -7.64062 10.8281 -6.375
v 7.64062 10.8281 -6.375
v -7.64062 1.90625 -6.375
v 7.64062 1.90625 -6.375
v 7.64062 1.90625 6.375
v 7.64062 0 4.45312
v -7.64062 0 4.45312
v -7.64062 1.90625 6.375
v 7.64062 10.8281 6.375
v -7.64062 10.8281 6.375
vt 0.944614 -0.632688
vt 0.944614 -0.684593
vt 0.996519 -0.684593
vt 0.943954 -0.622085
vt 0.995859 -0.57018
vt 0.943954 -0.57018
vt 0.70173 -0.622085
vt 0.70173 -0.57018
vt 0.649825 -0.57018
vt 0.70239 -0.632688
vt 0.650485 -0.684593
vt 0.70239 -0.684593
vt 0.944614 -0.978722
vt 0.996519 -0.926817
vt 0.944614 -0.926817
vt 0.70239 -0.978722
vt 0.70239 -0.926817
vt 0.650485 -0.926817
vt 0.70173 -0.276051
vt 0.649825 -0.327956
vt 0.70173 -0.327956
vt 0.943954 -0.276051
vt 0.943954 -0.327956
vt 0.995859 -0.327956
vt 0.381114 -0.0350888
vt 0.381114 -0.381123
vt 0.554131 -0.0350888
vt 0.554131 -0.381123
vt 0.34651 -0.00048548
vt 0.588734 -0.00048548
vt 0.588734 -0.415726
vt 0.34651 -0.415726
vt 0.502233 -0.618872
vt 0.329215 -0.618872
vt 0.329215 -0.964906
vt 0.502233 -0.964906
vt 0.536836 -0.584269
vt 0.536836 -0.99951
vt 0.294612 -0.99951
vt 0.294612 -0.584269
vt 0.260009 -0.035087
vt 0.0869915 -0.035087
vt 0.0869915 -0.381121
vt 0.260009 -0.381121
vt 0.294612 -0.000483811
vt 0.294612 -0.415725
vt 0.0523881 -0.415725
vt 0.0523881 -0.000483811
vt 0.035088 -0.964907
vt 0.208105 -0.964907
vt 0.208105 -0.618873
vt 0.035088 -0.618873
vt 0.000484651 -0.99951
vt 0.000484651 -0.58427
vt 0.242709 -0.58427
vt 0.242709 -0.99951
vt 0.000482901 -0.000483811
vt 0.000482901 -0.415725
vt 0.294614 -0.58427
vt 0.294614 -0.99951
vt 0.588736 -0.415727
vt 0.640641 -0.415727
vt 0.640641 -0.000486314
vt 0.588736 -0.000486314
vt 0.346517 -0.415725
vt 0.346517 -0.000483811
vn -0.242322 -0.073565 0.967403
vn -0.874844 0.405241 0.265381
vn 0.089853 0.963776 0.251122
vn -0.070900 0.266713 0.961165
vn 0.113424 0.989177 -0.093085
vn 0.835779 0.405241 0.370476
vn 0.242687 -0.049068 0.968863
vn 0.905032 -0.359895 0.226699
vn 0.158683 -0.975702 0.151079
vn 0.121821 -0.098017 0.987700
vn -0.117855 -0.989177 0.087407
vn -0.843416 -0.359895 0.398906
vn -0.049009 -0.049068 -0.997592
vn -0.232299 0.941544 -0.243991
vn -0.844620 0.382683 -0.374394
vn -0.121490 -0.122411 -0.985016
vn -0.891996 -0.219101 -0.395395
vn -0.067587 -0.995185 -0.070989
vn -0.049009 -0.049068 -0.997592
vn 0.087407 -0.989177 -0.117855
vn 0.849975 -0.266713 -0.454321
vn 0.257051 0.266713 -0.928864
vn 0.908642 0.313682 -0.275633
vn 0.065824 0.995185 0.072626
vn 0.518964 -0.242980 0.819534
vn -0.180240 -0.382683 0.906127
vn 0.219651 0.427555 0.876898
vn -0.495480 0.266713 0.826658
vn -0.242322 -0.073565 0.967403
vn 0.121821 -0.098017 0.987700
vn 0.242687 -0.049068 0.968863
vn -0.070900 0.266713 0.961165
vn 0.258720 -0.242980 -0.934893
vn 0.426138 0.427555 -0.797247
vn -0.234178 0.266713 -0.934893
vn -0.411039 -0.405241 -0.816594
vn -0.049009 -0.049068 -0.997592
vn 0.257051 0.266713 -0.928864
vn -0.049009 -0.049068 -0.997592
vn -0.121490 -0.122411 -0.985016
vn 0.211945 0.893224 -0.396522
vn 0.417027 0.817585 0.397043
vn -0.232299 0.941544 0.243991
vn -0.489969 0.831470 -0.261894
vn 0.089853 0.963776 0.251122
vn 0.113424 0.989177 -0.093085
vn 0.065824 0.995185 0.072626
vn -0.232299 0.941544 -0.243991
vn -0.354495 -0.857729 -0.372337
vn -0.254694 -0.803208 0.538506
vn 0.277157 -0.923880 0.263876
vn 0.538506 -0.803208 -0.254694
vn 0.158683 -0.975702 0.151079
vn -0.117855 -0.989177 0.087407
vn -0.067587 -0.995185 -0.070989
vn 0.087407 -0.989177 -0.117855
vn -0.049009 -0.049068 -0.997592
vn 0.257051 0.266713 -0.928864
vn -0.121490 -0.122411 -0.985016
vn -0.049009 -0.049068 -0.997592
vn 0.242687 -0.049068 0.968863
vn 0.158683 -0.975702 0.151079
vn -0.117855 -0.989177 0.087407
vn 0.121821 -0.098017 0.987700
vn -0.070900 0.266713 0.961165
vn -0.242322 -0.073565 0.967403
f 1/1/1 3/3/3 2/2/2
f 4/4/4 6/6/6 5/5/5
f 7/7/7 9/9/9 8/8/8
f 10/10/10 12/12/12 11/11/11
f 13/13/13 15/15/15 14/14/14
f 16/16/16 18/18/18 17/17/17
f 19/19/19 21/21/21 20/20/20
f 22/22/22 24/24/24 23/23/23
f 25/25/25 27/27/27 26/26/26
f 26/26/26 27/27/27 28/28/28
f 29/29/29 30/30/30 25/25/25
f 25/25/25 30/30/30 27/27/27
f 30/30/30 31/31/31 27/27/27
f 27/27/27 31/31/31 28/28/28
f 31/31/31 32/32/32 28/28/28
f 28/28/28 32/32/32 26/26/26
f 25/25/25 26/26/26 29/29/29
f 29/29/29 26/26/26 32/32/32
f 33/33/33 35/35/35 34/34/34
f 33/33/33 36/36/36 35/35/35
f 37/37/37 36/36/36 33/33/33
f 37/37/37 38/38/38 36/36/36
f 38/38/38 39/39/39 36/36/36
f 36/36/36 39/39/39 35/35/35
f 39/39/39 34/34/34 35/35/35
f 39/39/39 40/40/40 34/34/34
f 40/40/40 37/37/37 34/34/34
f 34/34/34 37/37/37 33/33/33
f 41/41/41 43/43/43 42/42/42
f 41/41/41 44/44/44 43/43/43
f 45/45/45 46/46/46 41/41/41
f 41/41/41 46/46/46 44/44/44
f 46/46/46 47/47/47 44/44/44
f 44/44/44 47/47/47 43/43/43
f 47/47/47 42/42/42 43/43/43
f 47/47/47 48/48/48 42/42/42
f 48/48/48 45/45/45 42/42/42
f 42/42/42 45/45/45 41/41/41
f 49/49/49 51/51/51 50/50/50
f 49/49/49 52/52/52 51/51/51
f 53/53/53 54/54/54 49/49/49
f 49/49/49 54/54/54 52/52/52
f 54/54/54 55/55/55 52/52/52
f 52/52/52 55/55/55 51/51/51
f 55/55/55 50/50/50 51/51/51
f 55/55/55 56/56/56 50/50/50
f 56/56/56 49/49/49 50/50/50
f 56/56/56 53/53/53 49/49/49
f 18/18/18 12/12/12 17/17/17
f 18/18/18 11/11/11 12/12/12
f 21/21/21 8/8/8 20/20/20
f 20/20/20 8/8/8 9/9/9
f 5/5/5 6/6/6 24/24/24
f 24/24/24 6/6/6 23/23/23
f 3/3/3 14/14/14 2/2/2
f 2/2/2 14/14/14 15/15/15
f 57/57/57 48/48/48 58/58/58
f 58/58/58 48/48/48 47/47/47
f 22/22/22 21/21/21 19/19/19
f 22/22/22 23/23/23 21/21/21
f 59/59/59 60/60/60 55/55/55
f 55/55/55 60/60/60 56/56/56
f 13/13/13 17/17/17 15/15/15
f 13/13/13 16/16/16 17/17/17
f 2/2/2 12/12/12 1/1/1
f 1/1/1 12/12/12 10/10/10
f 61/61/61 63/63/63 62/62/62
f 61/61/61 64/64/64 63/63/63
f 7/7/7 6/6/6 4/4/4
f 7/7/7 8/8/8 6/6/6
f 65/65/65 45/45/45 66/66/66
f 65/65/65 46/46/46 45/45/45
f 15/15/15 17/17/17 2/2/2
f 2/2/2 17/17/17 12/12/12
f 6/6/6 8/8/8 23/23/23
f 23/23/23 8/8/8 21/21/21
